<?xml version="1.0" encoding="UTF-8" standalone="no"?><!DOCTYPE svg PUBLIC "-//W3C//DTD SVG 1.1//EN" "http://www.w3.org/Graphics/SVG/1.1/DTD/svg11.dtd"><svg width="100%" height="100%" viewBox="0 0 6250 7130" version="1.1" xmlns="http://www.w3.org/2000/svg" xmlns:xlink="http://www.w3.org/1999/xlink" xml:space="preserve" xmlns:serif="http://www.serif.com/" style="fill-rule:evenodd;clip-rule:evenodd;stroke-linecap:round;stroke-linejoin:round;stroke-miterlimit:1.5;"><g id="Ebene2"><g><path d="M4666.23,1291.67l-0,4166.67" style="fill:none;stroke:#fff;stroke-width:51.7px;"/><path d="M4416.67,5874.22l-2666.67,0" style="fill:none;stroke:#000;stroke-width:51.7px;"/><path d="M1333.33,5458.33l0,-4166.67" style="fill:none;stroke:#fff;stroke-width:51.7px;"/><path d="M1611.08,875l2777.41,0" style="fill:none;stroke:#fff;stroke-width:51.7px;"/><path d="M4666.23,5457.56c7.594,289.17 -84.201,429.238 -277.742,416.666l-2777.41,0c-179.617,0.471 -260.6,-156.988 -277.742,-416.666" style="fill:none;stroke:#fff;stroke-width:51.7px;"/><path d="M1333.33,1291.67c-4.205,-280.149 135.242,-418.487 416.667,-416.667" style="fill:none;stroke:#fff;stroke-width:51.7px;"/><path d="M4666.23,1291.67c-23.374,-260.932 -118.564,-392.577 -275.428,-413.195" style="fill:none;stroke:#fff;stroke-width:51.7px;"/><path d="M2708.33,2833.33l-1042.55,210.731c-281.177,884.914 415.483,1212.91 944.38,908.452l98.174,-1119.18Z" style="fill:#fff;stroke:#fff;stroke-width:51.7px;"/><ellipse cx="2204.31" cy="3415.05" rx="212.359" ry="209.946" style="stroke:#fff;stroke-width:51.7px;"/><path d="M4250,4489.58c0,-155.226 -126.024,-281.25 -281.25,-281.25l-1979.17,0c-155.226,0 -281.25,126.024 -281.25,281.25l0,562.5c0,155.226 126.024,281.25 281.25,281.25l1979.17,0c155.226,0 281.25,-126.024 281.25,-281.25l0,-562.5Z" style="fill:#fff;stroke:#fff;stroke-width:51.7px;"/><path d="M1750,2671.98c0,-689.894 560.106,-1380.31 1250,-1380.31c689.894,-0 1250,560.106 1250,1250c0,689.893 -560.106,1250 -1250,1250l0,-1250l-1250,130.311Z" style="fill:#fff;stroke:#fff;stroke-width:51.7px;"/></g></g></svg>