<?xml version="1.0" encoding="UTF-8" standalone="no"?>
<!DOCTYPE svg PUBLIC "-//W3C//DTD SVG 1.1//EN" "http://www.w3.org/Graphics/SVG/1.1/DTD/svg11.dtd">
<svg width="100%" height="100%" viewBox="0 0 1500 1711" version="1.1" xmlns="http://www.w3.org/2000/svg" xmlns:xlink="http://www.w3.org/1999/xlink" xml:space="preserve" xmlns:serif="http://www.serif.com/" style="fill-rule:evenodd;clip-rule:evenodd;stroke-linecap:round;stroke-linejoin:round;stroke-miterlimit:1.5;">
    <g id="Ebene1">
        <g transform="matrix(0.763779,0,0,0.860609,158.99,112.473)">
            <path d="M51.965,11.768C47.129,13.134 42.364,16.891 38.556,23.424C34.398,30.556 30.93,41.534 28.257,55.352C11.42,142.376 23.419,347.389 31.004,372.187C57.384,458.432 308.19,1395.51 308.285,1395.69C309.692,1398.32 315.299,1404.79 323.715,1413.37C354.778,1445.04 425.201,1509.44 435.645,1517.14C442.036,1521.85 456.227,1525.14 477.111,1525.99C520.507,1527.77 595.537,1520.99 685.83,1509C925.228,1477.21 1272.58,1408.92 1419.45,1369.22C1457.78,1358.86 1482.86,1350 1489.99,1344.43C1494.75,1340.71 1498.1,1334.39 1499.88,1327.14C1502.14,1317.88 1502.06,1307.15 1501.14,1300.68C1496.05,1264.67 1163.4,437.842 1009.32,106.894C978.235,40.131 954.27,-6.589 941.696,-22.96C938.814,-26.713 936.251,-29.143 934.304,-30.385C932.259,-31.689 930.334,-32.204 928.729,-32.332C845.103,-38.964 87.294,1.789 51.965,11.768ZM925.571,-18.567C926.826,-17.147 930.525,-12.832 933.57,-8.105C946.764,12.378 968.052,54.773 994.798,112.219C1148.44,442.205 1480.48,1266.52 1485.56,1302.41C1486.31,1307.74 1486.38,1316.57 1484.52,1324.18C1483.54,1328.18 1482.25,1331.9 1479.62,1333.95C1473.1,1339.04 1449.88,1346.42 1414.88,1355.88C1268.45,1395.46 922.166,1463.51 683.505,1495.21C594.526,1507.03 520.6,1513.82 477.836,1512.06C467.484,1511.64 459.066,1510.73 452.852,1509.19C449.73,1508.42 447.277,1507.59 445.685,1506.41C436.689,1499.78 382.541,1450.37 348.651,1417.24C334.793,1403.69 324.307,1393.13 322.478,1389.71C322.383,1389.53 72.484,454.577 46.166,368.534C38.725,344.207 27.224,143.083 43.741,57.711C46.071,45.669 48.886,36.048 52.51,29.832C53.898,27.451 54.967,25.552 56.729,25.055C91.574,15.213 834.243,-24.492 925.571,-18.567Z"/>
        </g>
        <g transform="matrix(0.73569,-0.437791,0.446092,0.749641,-279.117,582.263)">
            <path d="M605.86,973.77C586.468,1010.68 757.402,1132.79 833.94,1110.97C899.267,1092.35 860.295,1005.39 863.56,994.871C865.246,989.437 867.319,981.173 869.446,971.629C874.965,946.856 880.841,913.451 881.233,898.474C881.538,886.807 940.508,704.172 920.819,694.961C918.056,693.668 779.643,818.493 776.787,824.138C763.674,850.062 656.01,878.327 605.86,973.77Z" style="fill:white;stroke:black;stroke-width:7.25px;"/>
        </g>
        <g transform="matrix(0.794618,0,0,0.687394,131.703,314.19)">
            <path d="M787.478,935.468C768.803,906.854 746.264,890.632 717.395,894.293C711.748,895.009 706.854,896.203 701.61,898.158C692.737,901.466 683.273,906.274 677.567,914.087C661.408,936.216 669.889,972.801 686.172,992.277C699.597,1008.34 719.957,1026.28 741.978,1028.15C748.928,1028.75 756.626,1026.92 763.244,1024.99C791.639,1016.75 804.837,991.164 801.677,962.486C801.047,956.767 798.728,950.913 795.478,945.613C793.186,941.876 790.431,938.413 787.478,935.468Z" style="fill:white;stroke:black;stroke-width:13.27px;"/>
        </g>
        <g transform="matrix(0.719717,-0.353857,0.504932,1.02699,-60.1076,193.211)">
            <path d="M610,160C841.804,160 1030,323.551 1030,525C1030,599.606 1004.19,669.014 959.908,726.841C884.624,825.158 755.956,890 610,890C557.917,890 661.953,662.352 615.913,647.264C574.597,633.724 382.456,834.073 348.512,810.56C251.937,743.662 190,640.567 190,525C190,323.551 378.196,160 610,160Z" style="fill:white;stroke:black;stroke-width:18.92px;"/>
        </g>
        <g transform="matrix(0.882296,0,0,0.921348,56.3485,117.944)">
            <path d="M342.805,889.459C348.361,921.172 352.915,972.008 380.039,993.271C404.283,1012.27 438.309,1007.81 459.669,1032.51C475.425,1050.73 457.275,1265.89 468.835,1293.82C494.586,1356.02 738.538,1312.07 763.719,1315.87C772.785,1317.24 781.579,1322.87 790.845,1321.62C812.513,1318.7 972.908,1307.68 990.202,1304.67C1017.68,1299.88 1105.33,1305.61 1126.32,1283.73C1138.18,1271.37 1140.27,1249.54 1142.8,1233.46C1145.09,1218.92 1143.62,1204.18 1144.92,1189.56C1148.37,1151.1 1157.51,1113.34 1120.51,1087.35C1081.07,1059.63 1028.69,1080.32 987.795,1093.01C924.788,1112.57 855.101,1119.41 789.614,1126.53C763.666,1129.35 724.096,1134.05 700.519,1118.71C676.37,1103 673.371,1072.3 652.619,1054.64C638.192,1042.37 613.491,1042.06 605.715,1023.3C593.564,993.985 602.212,953.927 580.791,928.209C537.447,876.17 409.02,872.837 345.273,881.252" style="fill:white;"/>
            <path d="M339.105,883.995C336.902,885.365 335.636,887.9 336.098,890.537C339.48,909.841 342.544,936.122 350.36,958.724C355.93,974.834 363.964,989.085 375.732,998.31C388.541,1008.35 403.853,1012.37 418.866,1016.96C431.866,1020.94 444.659,1025.36 454.431,1036.66C454.942,1037.26 455.222,1038.29 455.608,1039.6C456.252,1041.79 456.786,1044.55 457.248,1047.79C458.757,1058.39 459.411,1073.79 459.612,1091.78C460.17,1141.69 457.17,1211.21 458.095,1255.14C458.514,1275.08 459.942,1290.01 462.513,1296.22C466.14,1304.98 473.311,1312.07 483.426,1317.56C497.008,1324.92 516.195,1329.43 538.383,1331.77C596.328,1337.87 675.352,1329.52 723.642,1324.85C743.307,1322.94 757.598,1321.54 762.661,1322.3C766.838,1322.93 770.935,1324.6 775.072,1325.91C780.569,1327.65 786.12,1328.83 791.792,1328.07C813.489,1325.14 974.102,1314.1 991.42,1311.08C1010.66,1307.72 1059.38,1309.53 1094.09,1303.4C1110.72,1300.47 1124.29,1295.48 1131.33,1288.14C1144.04,1274.89 1146.81,1251.67 1149.53,1234.43C1151.84,1219.75 1150.38,1204.87 1151.7,1190.12C1153.1,1174.53 1155.39,1159.05 1155.28,1144.4C1155.08,1120.72 1148.79,1099.13 1124.54,1082.1C1103.29,1067.17 1078.62,1065.03 1053.7,1068.58C1030.19,1071.93 1006.48,1080.37 985.698,1086.82C923.117,1106.24 853.892,1112.99 788.847,1120.06C773.673,1121.71 753.721,1124.07 735.223,1122.42C723.77,1121.4 712.877,1118.88 704.341,1113.32C693.246,1106.1 687.189,1095.31 681.342,1084.43C674.594,1071.86 668.142,1059.14 657.136,1049.78C649.436,1043.22 639.077,1039.71 629.522,1035.49C622.167,1032.24 615.231,1028.61 612.036,1020.9C606.169,1006.74 605.45,989.974 603.485,973.66C601.301,955.523 597.606,937.954 586.107,924.148C567.941,902.337 535.679,888.383 499.027,880.425C445.72,868.85 383.204,869.671 344.345,874.801C340.627,875.292 338.024,878.581 338.537,882.141C338.631,882.8 338.826,883.422 339.105,883.995ZM349.227,887.32C349.352,887.659 349.447,888.014 349.511,888.382C352.796,907.132 355.679,932.676 363.271,954.63C367.972,968.225 374.416,980.446 384.347,988.231C395.782,997.195 409.604,1000.45 423.005,1004.55C438.42,1009.27 453.319,1014.96 464.907,1028.36C466.782,1030.53 468.614,1034.69 469.823,1040.7C472.009,1051.57 472.968,1069.76 473.213,1091.64C473.77,1141.51 470.768,1210.98 471.693,1254.88C472.066,1272.59 472.873,1285.9 475.157,1291.42C478.42,1299.3 486.072,1304.9 496.384,1309.19C508.06,1314.04 523.035,1317.05 539.871,1318.82C596.923,1324.83 674.727,1316.49 722.274,1311.89C743.684,1309.82 759.264,1308.61 764.777,1309.44C769.666,1310.17 774.499,1312.01 779.342,1313.54C782.826,1314.64 786.304,1315.65 789.898,1315.17C811.536,1312.25 971.714,1301.27 988.984,1298.26C1005.56,1295.38 1043.9,1296.26 1076.49,1292.7C1088.84,1291.36 1100.33,1289.38 1109.26,1286.17C1114.36,1284.34 1118.57,1282.18 1121.31,1279.33C1126.52,1273.9 1129.42,1266.34 1131.46,1258.43C1133.73,1249.62 1134.84,1240.35 1136.08,1232.49C1138.35,1218.09 1136.85,1203.48 1138.15,1189C1139.51,1173.83 1141.79,1158.76 1141.67,1144.5C1141.52,1124.83 1136.63,1106.75 1116.49,1092.6C1098.29,1079.81 1077.05,1078.42 1055.7,1081.46C1032.94,1084.7 1010.01,1092.96 989.892,1099.2C926.459,1118.89 856.311,1125.84 790.381,1133C774.418,1134.74 753.424,1137.12 733.963,1135.39C720.109,1134.15 707.023,1130.81 696.697,1124.1C683.643,1115.6 676.126,1103.19 669.248,1090.38C663.271,1079.26 657.849,1067.8 648.102,1059.51C641.376,1053.79 632.17,1051.01 623.824,1047.32C613.276,1042.66 603.976,1036.76 599.395,1025.7C593.111,1010.54 592.078,992.625 589.974,975.152C588.089,959.501 585.397,944.183 575.474,932.269C558.965,912.449 529.327,900.359 496.019,893.127C445.752,882.212 387.03,882.7 349.227,887.32Z"/>
        </g>
    </g>
</svg>
