<?xml version="1.0" encoding="UTF-8" standalone="no"?>
<!DOCTYPE svg PUBLIC "-//W3C//DTD SVG 1.1//EN" "http://www.w3.org/Graphics/SVG/1.1/DTD/svg11.dtd">
<svg width="100%" height="100%" viewBox="0 0 800 600" version="1.1" xmlns="http://www.w3.org/2000/svg" xmlns:xlink="http://www.w3.org/1999/xlink" xml:space="preserve" xmlns:serif="http://www.serif.com/" style="fill-rule:evenodd;clip-rule:evenodd;stroke-linecap:round;stroke-linejoin:round;stroke-miterlimit:1.5;">
    <path d="M257.385,227.294C235.701,263.689 209.407,296.784 187.499,332.743C180.654,343.978 173.214,354.892 165.558,365.586C162.838,369.386 160.164,373.223 157.406,376.996C156.325,378.474 152.619,380.34 154.116,381.394C204.044,416.521 283.349,396.567 340.136,391.42" style="fill:none;stroke:black;stroke-width:7px;"/>
    <path d="M290.055,339.934C301.802,350.121 313.735,359.983 325.276,370.419C343.448,386.849 349.859,389.1 337.176,415.886C334.04,422.508 329.934,428.614 325.473,434.408C319.369,442.337 312.957,449.739 305.161,456.013" style="fill:none;stroke:black;stroke-width:7px;"/>
    <path d="M379.415,393.593C435.514,397.574 493.737,400.145 549.829,395.753C563.659,394.67 577.536,393.884 591.306,392.158C591.894,392.084 603.953,390.84 603.981,390.426C604.607,381.044 595.654,366.36 592.002,357.923C578.546,326.837 560.15,298.935 540.716,271.184" style="fill:none;stroke:black;stroke-width:7px;"/>
    <path d="M541.875,325.669C541.558,306.902 540.455,288.315 539.693,269.535C539.655,268.587 539.007,251.003 539.392,250.972C550.667,250.041 562.777,252.513 573.757,254.762C581.068,256.259 588.309,258.13 595.462,260.253C607.287,263.761 618.695,268.121 629.128,274.727" style="fill:none;stroke:black;stroke-width:7px;"/>
    <path d="M520.071,221.012C492.517,203.191 467.757,180.726 446.589,155.619C436.158,143.249 427.265,121.778 411.422,115.602C382.015,104.139 349.165,117.779 322.37,129.947C305.953,137.402 294.491,149.322 283.217,162.988" style="fill:none;stroke:black;stroke-width:7px;"/>
    <path d="M299.885,50.426C297.827,58.926 295.582,67.371 293.143,75.77C291.155,82.614 289,89.403 286.739,96.161C284.133,103.952 260.831,159.68 267.716,167.226C280.331,181.049 305.984,184.256 323.551,185.997C338.875,187.516 354.217,186.26 369.51,187.327" style="fill:none;stroke:black;stroke-width:7px;"/>
    <path d="M101.873,166.54C97.958,202.867 92.73,239.516 92.969,276.122C93.38,339.06 103.374,403.082 110.925,465.545C113.673,488.28 112.726,547.669 126.621,563.518C141.867,580.91 168.999,586.38 190.837,588.356C243.623,593.134 296.868,578.784 349.757,578.521C418.911,578.176 484.404,580.96 552.969,567.512C573.537,563.477 601.465,563.292 620.204,552.598C653.389,533.661 666.691,484.553 677.35,451.235C698.477,385.196 691.103,343.624 686.622,276.381C682.989,221.855 680.994,166.307 670.935,112.442" style="fill:none;stroke:black;stroke-width:7px;"/>
    <path d="M27,78.882C179.295,52.054 332.941,46.889 486.827,35.722C577.037,29.176 689.715,1.417 723.583,115.169C728.968,133.254 732.082,152.448 732.963,171.32" style="fill:none;stroke:black;stroke-width:7px;"/>
    <path d="M29.734,71.195C9.92,117.625 17.41,170.631 28.818,218.278" style="fill:none;stroke:black;stroke-width:7px;"/>
    <path d="M213.186,51.978C223.713,39.207 237.649,30.761 252.685,24.113C292.324,6.588 359.2,-10.085 402.145,11.024C414.946,17.316 425.053,29.344 432.765,41.1" style="fill:none;stroke:black;stroke-width:7px;"/>
</svg>
