<?xml version="1.0" encoding="UTF-8" standalone="no"?>
<!DOCTYPE svg PUBLIC "-//W3C//DTD SVG 1.1//EN" "http://www.w3.org/Graphics/SVG/1.1/DTD/svg11.dtd">
<svg width="100%" height="100%" viewBox="0 0 800 600" version="1.1" xmlns="http://www.w3.org/2000/svg" xmlns:xlink="http://www.w3.org/1999/xlink" xml:space="preserve" xmlns:serif="http://www.serif.com/" style="fill-rule:evenodd;clip-rule:evenodd;stroke-linecap:round;stroke-linejoin:round;stroke-miterlimit:1.5;">
    <path d="M400,100C403.896,102.038 100,500 100,500L700,500C700,500 396.104,97.962 400,100Z" style="fill:none;stroke:black;stroke-width:7px;"/>
    <path d="M422.364,211.861C404.741,237.612 389.617,264.888 372.59,291.015C366.806,299.89 361.05,308.766 354.977,317.449C352.261,321.333 349.448,325.149 346.672,328.99C346.41,329.353 345.51,329.839 345.887,330.079C363.126,341.089 386.074,339.562 405.644,338.858C412.159,338.624 418.669,338.288 425.177,337.904C428.247,337.723 431.317,337.539 434.387,337.36C434.55,337.35 434.957,337.191 434.876,337.333C427.437,350.302 417.903,361.972 408.24,373.319C401.439,381.307 394.778,389.421 388.145,397.549C378.767,409.042 369.715,420.838 360.568,432.52" style="fill:none;stroke:black;stroke-width:7px;"/>
    <path d="M347.958,379.483C346.269,397.33 345.542,415.253 344.076,433.118C343.975,434.351 341.946,447.603 342.816,448.101C353.675,454.311 400.862,442.042 412.935,439.538" style="fill:none;stroke:black;stroke-width:7px;"/>
</svg>
