<?xml version="1.0" encoding="UTF-8" standalone="no"?>
<!DOCTYPE svg PUBLIC "-//W3C//DTD SVG 1.1//EN" "http://www.w3.org/Graphics/SVG/1.1/DTD/svg11.dtd">
<svg width="100%" height="100%" viewBox="0 0 800 600" version="1.1" xmlns="http://www.w3.org/2000/svg" xmlns:xlink="http://www.w3.org/1999/xlink" xml:space="preserve" xmlns:serif="http://www.serif.com/" style="fill-rule:evenodd;clip-rule:evenodd;stroke-linecap:round;stroke-linejoin:round;stroke-miterlimit:1.5;">
    <path d="M150.434,131.432C148.088,156.408 145.123,181.379 140.987,206.126C138.203,222.787 132.534,241.114 133.721,258.057C135.084,277.515 146.827,296.632 156.903,312.77C182.483,353.735 210.87,401.51 262.162,411.049C314.667,420.814 381.772,378.459 422.228,403.207C461.791,427.408 482.694,476.009 506.063,513.961C517.496,532.529 529.737,554.128 550.388,563.7C563.04,569.565 578.586,569.789 592.261,569.594C603.857,569.429 614.855,568.251 626.055,565.188C641.129,561.065 655.799,555.034 668.029,545.102C695.556,522.748 683.692,488.541 666.506,463.182C632.692,413.291 573.43,385.81 538.702,336.925C495.918,276.701 540.593,232.726 533.361,174.962C529.18,141.574 502.835,118.671 478.447,98.405C422.526,51.935 396.514,21.307 315.186,28.558C286.725,31.096 259.137,38.373 232.065,47.296C228.611,48.434 225.171,49.613 221.753,50.855C221.258,51.035 205.517,56.528 205.628,57.028C217.171,109.399 294.153,162.384 337.46,190.029C353.443,200.232 369.74,209.925 385.646,220.25C388.42,222.051 400.91,227.604 401.997,231.142C411.913,263.402 386.323,301.011 368.134,325.369C363.84,331.119 359.285,336.675 354.633,342.138C354.281,342.552 347.584,351.097 347.002,350.846C322.379,340.209 300.325,317.314 279.582,300.768C228.227,259.803 185.252,219.196 140.706,171.304" style="fill:none;stroke:black;stroke-width:7px;"/>
</svg>
